<svg fill="none" height="92" viewBox="0 0 92 92" width="92" xmlns="http://www.w3.org/2000/svg"><path d="m25.6191 43.6983v3.6158c0 1.8255-1.484 3.3095-3.3095 3.3095-1.8256 0-3.3096-1.484-3.3096-3.3213v-3.6158c0-1.8255 1.484-3.3095 3.3096-3.3095 1.8255 0 3.3095 1.484 3.3095 3.3213z" fill="#0066d9"/><path d="m65.3789 43.7934c0-.0353 0-.0589 0-.0942 0-1.8256 1.484-3.3096 3.3096-3.3096 1.8255 0 3.3095 1.484 3.3095 3.3096v.0942 3.6158c-.0471 1.7902-1.5075 3.2153-3.3095 3.2153s-3.2625-1.4369-3.3096-3.2153z" fill="#4285f4"/><path d="m37.0644 54.5335v3.6157c0 1.8256-1.484 3.3096-3.3095 3.3096-1.8256 0-3.3096-1.484-3.3096-3.3096v-3.6157c0-1.8256 1.484-3.3096 3.3096-3.3096 1.8255 0 3.3095 1.484 3.3095 3.3096zm0-21.6829v11.8249c-.0353 1.7902-1.5075 3.2389-3.3095 3.2389s-3.2743-1.4369-3.3096-3.2389v-11.8249c0-1.8256 1.484-3.3096 3.3096-3.3096 1.8255 0 3.3095 1.484 3.3095 3.3096z" fill="#ea4335"/><path d="m53.9336 36.4663c0 1.8256 1.484 3.3096 3.3095 3.3096 1.8256 0 3.3096-1.484 3.3096-3.3096v-3.6157c0-1.8256-1.484-3.3096-3.3096-3.3096-1.8255 0-3.3095 1.484-3.3095 3.3096z" fill="#34a853"/><path d="m42.1914 25.9253c0 1.8256 1.484 3.3096 3.3096 3.3096 1.8255 0 3.3095-1.484 3.3095-3.3096v-3.6157c0-1.8256-1.484-3.3096-3.3095-3.3096-1.8256 0-3.3096 1.484-3.3096 3.3096zm0 39.1494c0-1.8256 1.484-3.3096 3.3096-3.3096 1.8255 0 3.3095 1.484 3.3095 3.3096v3.6157c0 1.8256-1.484 3.3096-3.3095 3.3096-1.8256 0-3.3096-1.484-3.3096-3.3096z" fill="#fab908"/><path d="m53.9336 46.4072c0-1.8255 1.484-3.3095 3.3095-3.3095 1.8256 0 3.3096 1.484 3.3096 3.3095v11.7425c0 1.8255-1.484 3.3095-3.3096 3.3095-1.8255 0-3.3095-1.484-3.3095-3.3095z" fill="#34a853"/><path d="m48.8105 35.8672v19.2684c0 1.8256-1.484 3.3096-3.3095 3.3096-1.8256 0-3.3096-1.484-3.3096-3.3096v-19.2684c0-1.8256 1.484-3.3096 3.3096-3.3096 1.8255 0 3.3095 1.4722 3.3095 3.3096z" fill="#fab908"/></svg>